# xmcd
#
# Track frame offsets:
#	150
#	12597
#	26253
#	37517
#	47954
#	60776
#	71443
#	88908
#	101693
#	111224
#	127699
#	140787
#	158128
#
# Disc length: 2253 seconds
#
# Revision: 0
# Processed by: cddbd v1.5.1PL2 Copyright (c) Steve Scherf et al.
# Submitted via: EasyCDDAExtractor 9.1.3.1
#
DISCID=a008cb0d
DTITLE=Matt Palmer - Fiddlin' in the Rockies
DYEAR=2004
DGENRE=Country
TTITLE0=12th Street Rag
TTITLE1=Angel's Waltz
TTITLE2=Brilliancy
TTITLE3=Listen to the Mockingbird
TTITLE4=Deep Water
TTITLE5=Whiskey Before Breakfast
TTITLE6=Gardenia Waltz
TTITLE7=Little Bit O' Swing
TTITLE8=Goldrush
TTITLE9=A Texas Serenade
TTITLE10=Backup and Push
TTITLE11=Ashokan Farewell
TTITLE12=Orange Bossom Special
EXTD=
EXTT0=
EXTT1=
EXTT2=
EXTT3=
EXTT4=
EXTT5=
EXTT6=
EXTT7=
EXTT8=
EXTT9=
EXTT10=
EXTT11=
EXTT12=
PLAYORDER=
